<?xml version="1.0" encoding="utf-8"?>
<!-- Generator: Adobe Illustrator 16.0.0, SVG Export Plug-In . SVG Version: 6.00 Build 0)  -->
<!DOCTYPE svg PUBLIC "-//W3C//DTD SVG 1.1//EN" "http://www.w3.org/Graphics/SVG/1.1/DTD/svg11.dtd">
<svg version="1.1" id="Layer_1" xmlns="http://www.w3.org/2000/svg" xmlns:xlink="http://www.w3.org/1999/xlink" x="0px" y="0px"
	 width="200px" height="200px" viewBox="0 0 200 200" enable-background="new 0 0 200 200" xml:space="preserve">
<linearGradient id="SVGID_1_" gradientUnits="userSpaceOnUse" x1="100.2295" y1="194.5059" x2="100.2295" y2="4.1816">
	<stop  offset="0" style="stop-color:#ED2F55"/>
	<stop  offset="1" style="stop-color:#F05B22"/>
</linearGradient>
<path fill="url(#SVGID_1_)" d="M175.471,148.486c-3-28.273-31.681-63.605-32.899-65.096c-0.39-0.476-0.826-0.891-1.292-1.253
	c5.509-8.012,8.741-17.712,8.741-28.171c0-27.496-22.29-49.786-49.785-49.786c-27.496,0-49.786,22.29-49.786,49.786
	c0,10.519,3.271,20.271,8.839,28.309c-0.503,0.414-0.969,0.886-1.373,1.434c-3.334,4.521-32.599,44.857-33.515,68.52
	c-0.435,11.224,0.15,25.232,8.605,34.021c5.345,5.555,12.807,8.255,22.814,8.255h89.094c10.622,0,18.36-2.863,23.657-8.752
	C175.287,178.289,177.415,166.795,175.471,148.486z M100.236,23.442c16.831,0,30.524,13.693,30.524,30.525
	c0,16.831-13.693,30.524-30.524,30.524c-16.832,0-30.525-13.694-30.525-30.524C69.711,37.135,83.404,23.442,100.236,23.442z
	 M156.662,175.04c-0.767,0.854-3.099,3.447-11.747,3.447H55.821c-8.053,0-10.474-2.516-11.269-3.343
	c-3.238-3.365-4.594-10.658-4.143-22.295c0.605-15.644,21.433-47.348,29.969-59.042c8.318,6.244,18.654,9.945,29.857,9.945
	c11.285,0,21.69-3.761,30.04-10.09c7.54,9.246,27.198,37.04,29.266,56.516C160.905,163.035,159.938,171.4,156.662,175.04z"/>
</svg>
