<?xml version="1.0" encoding="utf-8"?>
<!-- Generator: Adobe Illustrator 16.0.0, SVG Export Plug-In . SVG Version: 6.00 Build 0)  -->
<!DOCTYPE svg PUBLIC "-//W3C//DTD SVG 1.1//EN" "http://www.w3.org/Graphics/SVG/1.1/DTD/svg11.dtd">
<svg version="1.1" id="Layer_1" xmlns="http://www.w3.org/2000/svg" xmlns:xlink="http://www.w3.org/1999/xlink" x="0px" y="0px"
	 width="200px" height="200px" viewBox="0 0 200 200" enable-background="new 0 0 200 200" xml:space="preserve">
<linearGradient id="SVGID_1_" gradientUnits="userSpaceOnUse" x1="100.2866" y1="194.5059" x2="100.2866" y2="4.0405">
	<stop  offset="0" style="stop-color:#ED2F55"/>
	<stop  offset="1" style="stop-color:#F05B22"/>
</linearGradient>
<path fill="url(#SVGID_1_)" d="M175.583,148.452c-3.004-28.295-31.703-63.653-32.925-65.144c-0.39-0.477-0.827-0.891-1.293-1.253
	c5.515-8.018,8.748-17.726,8.748-28.193c0-27.515-22.307-49.822-49.822-49.822c-27.516,0-49.823,22.307-49.823,49.822
	c0,10.527,3.274,20.286,8.846,28.331c-0.502,0.414-0.969,0.887-1.374,1.435c-3.336,4.524-32.622,44.89-33.539,68.57
	c-0.436,11.232,0.15,25.251,8.611,34.046c5.348,5.56,12.816,8.262,22.831,8.262h89.16c10.629,0,18.374-2.865,23.675-8.758
	C175.4,178.277,177.528,166.774,175.583,148.452z M126.021,56.101c-3.729,0-6.753-3.023-6.753-6.753
	c0-7.814-6.356-14.172-14.172-14.172c-3.729,0-6.752-3.023-6.752-6.753c0-3.729,3.023-6.752,6.752-6.752
	c15.263,0,27.678,12.416,27.678,27.677C132.774,53.078,129.751,56.101,126.021,56.101z"/>
</svg>
