<?xml version="1.0" encoding="utf-8"?>
<!-- Generator: Adobe Illustrator 16.0.0, SVG Export Plug-In . SVG Version: 6.00 Build 0)  -->
<!DOCTYPE svg PUBLIC "-//W3C//DTD SVG 1.1//EN" "http://www.w3.org/Graphics/SVG/1.1/DTD/svg11.dtd">
<svg version="1.1" id="Layer_1" xmlns="http://www.w3.org/2000/svg" xmlns:xlink="http://www.w3.org/1999/xlink" x="0px" y="0px"
	 width="200px" height="200px" viewBox="0 0 200 200" enable-background="new 0 0 200 200" xml:space="preserve">
<linearGradient id="SVGID_1_" gradientUnits="userSpaceOnUse" x1="363.9707" y1="-303.0962" x2="254.6398" y2="-113.7297" gradientTransform="matrix(1 0 0 -1 -206 -95)">
	<stop  offset="0" style="stop-color:#ED2F55"/>
	<stop  offset="1" style="stop-color:#F05B22"/>
</linearGradient>
<path fill="url(#SVGID_1_)" d="M187.21,177.249l-44.03-45.787c11.324-13.47,17.526-30.409,17.526-48.043
	c0-41.194-33.515-74.711-74.723-74.711c-41.191,0-74.707,33.517-74.707,74.711c0,41.204,33.515,74.718,74.707,74.718
	c15.465,0,30.216-4.658,42.81-13.529l44.38,46.156c1.856,1.938,4.347,2.998,7.026,2.998c2.521,0,4.914-0.968,6.74-2.726
	C190.826,187.311,190.938,181.135,187.21,177.249L187.21,177.249z"/>
</svg>
