<?xml version="1.0" encoding="utf-8"?>
<!-- Generator: Adobe Illustrator 16.0.0, SVG Export Plug-In . SVG Version: 6.00 Build 0)  -->
<!DOCTYPE svg PUBLIC "-//W3C//DTD SVG 1.1//EN" "http://www.w3.org/Graphics/SVG/1.1/DTD/svg11.dtd">
<svg version="1.1" id="Layer_1" xmlns="http://www.w3.org/2000/svg" xmlns:xlink="http://www.w3.org/1999/xlink" x="0px" y="0px"
	 width="200px" height="200px" viewBox="0 0 200 200" enable-background="new 0 0 200 200" xml:space="preserve">
<linearGradient id="SVGID_1_" gradientUnits="userSpaceOnUse" x1="100.7075" y1="194.293" x2="100.7075" y2="5.7075">
	<stop  offset="0" style="stop-color:#ED2F55"/>
	<stop  offset="1" style="stop-color:#F05B22"/>
</linearGradient>
<path fill="url(#SVGID_1_)" d="M153.25,5.707H48.165c-22.963,0-41.75,18.788-41.75,41.75v105.085c0,22.962,18.788,41.75,41.75,41.75
	H153.25c22.962,0,41.75-18.788,41.75-41.75V47.458C195,24.495,176.212,5.707,153.25,5.707z M110.293,150.593H90.898V77.172h19.395
	V150.593z M100.491,68.267c-6.759,0-11.11-4.003-11.11-9.588c0-5.525,4.351-9.524,11.11-9.524c6.902,0,11.248,4,11.248,9.524
	C111.739,64.264,107.463,68.267,100.491,68.267z"/>
</svg>
