<?xml version="1.0" encoding="utf-8"?>
<!-- Generator: Adobe Illustrator 16.0.0, SVG Export Plug-In . SVG Version: 6.00 Build 0)  -->
<!DOCTYPE svg PUBLIC "-//W3C//DTD SVG 1.1//EN" "http://www.w3.org/Graphics/SVG/1.1/DTD/svg11.dtd">
<svg version="1.1" id="Layer_1" xmlns="http://www.w3.org/2000/svg" xmlns:xlink="http://www.w3.org/1999/xlink" x="0px" y="0px"
	 width="200px" height="200px" viewBox="0 0 200 200" enable-background="new 0 0 200 200" xml:space="preserve">
<g>
	<path fill="#F15C22" d="M100.001,32.483l15.355,47.258l1.571,4.837h5.086h49.688l-40.198,29.207l-4.114,2.989l1.571,4.837
		l15.354,47.257l-40.2-29.206l-4.114-2.989l-4.114,2.989l-40.201,29.206l15.355-47.257l1.572-4.837l-4.115-2.989l-40.2-29.207h49.69
		h5.086l1.571-4.837L100.001,32.483 M100.001,9.831L77.988,77.578H6.754l57.629,41.87l-22.013,67.746l57.63-41.869l57.629,41.869
		l-22.012-67.746l57.628-41.87h-71.232L100.001,9.831L100.001,9.831z"/>
</g>
</svg>
